<svg width="810" height="810" viewBox="0 0 810 810" fill="none" xmlns="http://www.w3.org/2000/svg">
<path d="M471.087 96.3286L439.678 247.829L481.678 182.329L471.087 96.3286Z" fill="black"/>
<path d="M314.178 124.389L321.178 210.389L368.678 271.329L314.178 124.389Z" fill="black"/>
<path d="M589.678 137.329L513.178 245.889L574.178 186.459L589.678 137.329Z" fill="black"/>
<path d="M655.178 235.723L576.178 326.889L641.678 278.891L655.178 235.723Z" fill="black"/>
<path d="M190.678 202.028L195.178 247.389L268.178 296.449L190.678 202.028Z" fill="black"/>
<path fill-rule="evenodd" clip-rule="evenodd" d="M655.178 235.723L576.178 326.889L641.678 278.891L655.178 235.723ZM513.178 245.889L589.678 137.329L574.178 186.459L513.178 245.889ZM471.087 96.3286L439.678 247.829L481.678 182.329L471.087 96.3286ZM321.178 210.389L314.178 124.389L368.678 271.329L321.178 210.389Z" fill="black"/>
<path fill-rule="evenodd" clip-rule="evenodd" d="M471.087 12.8888C476.552 10.3414 481.387 11.1749 485.587 15.3888L506.106 61.4321L526.587 107.389C526.504 117.385 526.504 127.386 526.587 137.389L600.087 75.8888C606.671 72.8472 611.839 74.3475 615.587 80.3888C620.584 114.366 625.418 148.367 630.087 182.389L629.94 184.152L629.837 185.389L629.743 186.519C629.691 187.142 629.639 187.766 629.587 188.389C627.018 195.102 624.684 201.769 622.587 208.389C647.136 196.197 671.969 184.697 697.087 173.889C702.551 172.6 707.052 174.1 710.587 178.389C711.227 185.171 710.56 191.838 708.587 198.389C702.513 222.615 696.846 246.949 691.587 271.389L667.087 306.389C671.677 307.392 658.632 404.89 663.087 405.889C681.93 441.091 693.096 478.591 696.587 518.389C701.307 607.659 660.807 664.826 575.087 689.889C560.594 693.488 545.928 695.988 531.087 697.389C529.973 718.72 528.806 740.055 527.587 761.389C525.779 773.51 519.611 782.677 509.087 788.889C502.521 792.8 495.521 795.633 488.087 797.389C480.653 799.145 453.087 798.389 453.087 798.389C414.892 791.203 380.725 775.537 350.587 751.389C346.656 745.347 345.156 738.68 346.087 731.389C347.173 711.348 348.34 691.347 349.587 671.389C334.694 662.164 322.027 650.497 311.587 636.389C277.039 645.208 249.039 635.541 227.587 607.389C218.406 591.984 214.239 575.317 215.087 557.389C196.482 554.233 177.815 551.399 159.087 548.889C150.311 546.504 147.478 541.004 150.587 532.389C160.554 514.62 170.388 496.787 180.087 478.889C179.315 477.668 178.315 476.668 177.087 475.889C152.212 464.267 127.546 452.267 103.087 439.889C98.9161 436.035 98.0828 431.535 100.587 426.389L136.087 390.889C146.501 387.473 156.835 383.973 167.087 380.389C164.733 378.701 162.733 376.701 161.087 374.389C154.171 369.977 148.004 364.643 142.587 358.389C129.839 335.892 116.839 313.558 103.587 291.389C98.3563 281.51 101.189 276.177 112.087 275.389C133.061 277.85 154.061 279.683 175.087 280.889C169.131 272.81 163.298 264.644 157.587 256.389C156.188 253.526 155.188 250.526 154.587 247.389C151.57 214.04 148.404 180.705 145.087 147.389C146.364 138.617 151.364 135.116 160.087 136.889C194.745 155.883 229.079 175.383 263.087 195.389C263.252 195.141 263.417 194.894 263.582 194.646L263.84 194.258L264.087 193.889C259.345 180.026 256.512 165.86 255.587 151.389C264.18 122.944 273.18 94.6095 282.587 66.3888C288.135 55.7707 295.302 54.6034 304.087 62.8888C314.337 71.8052 324.587 80.722 334.837 89.6388L337.229 91.72L337.889 92.2943C347.122 100.326 356.354 108.357 365.587 116.389C372.01 126.901 378.177 137.568 384.087 148.389C386.416 134.423 388.583 120.422 390.587 106.389C391.361 102.84 392.694 99.5065 394.587 96.3888C419.718 68.256 445.218 40.4226 471.087 12.8888ZM439.674 444.449C444.883 437.107 451.717 432.107 460.174 429.449C482.581 430.081 496.081 441.415 500.674 463.449C503.496 478.387 499.662 491.221 489.174 501.949C469.068 513.58 452.568 509.746 439.674 490.449C432.346 475.17 432.346 459.836 439.674 444.449ZM590.174 432.449C604.137 431.043 614.637 436.376 621.674 448.449C627.754 461.033 628.754 474.033 624.674 487.449C615.976 504.237 603.143 508.404 586.174 499.949C568.16 484.053 564.327 465.22 574.674 443.449C578.685 437.906 583.851 434.239 590.174 432.449ZM140.678 429.389L187.678 421.889L250.678 448.389L205.678 455.389L140.678 429.389ZM169.678 358.389C169.678 358.389 127.936 298.879 124.678 293.419L221.902 366.628L169.678 358.389ZM292.319 320.949L183.678 256.389L175.087 174.449L255.587 221.712C255.587 221.712 283.849 312.274 292.319 320.949ZM675.24 205.396C676.498 204.552 677.419 204.863 678.007 206.329C668.795 230.284 660.286 254.492 652.479 278.951C627.574 297.901 602.897 317.009 578.448 336.275C573.647 338.273 569.364 341.136 565.6 344.86C573.877 318.759 582.78 292.738 592.312 266.797C606.726 256.962 620.674 246.624 634.159 235.783C648.012 225.954 661.706 215.824 675.24 205.396ZM311.267 216.088C309.667 179.537 308.778 142.981 308.6 106.419C329.862 138.681 351.64 170.552 373.934 202.028C375.336 208.691 376.447 215.253 377.267 221.712C377.467 245.152 377.911 268.586 378.6 292.013C378.52 292.776 378.077 293.245 377.267 293.419C371.467 286.755 365.69 280.192 359.934 273.734C343.989 254.337 327.767 235.123 311.267 216.088ZM601.764 113.992C602.944 113.043 603.888 113.273 604.6 114.683C597.496 139.345 591.112 164.198 585.451 189.241C562.278 210.275 539.348 231.446 516.657 252.754C512.047 255.161 508.027 258.383 504.6 262.419C510.588 235.7 517.206 209.005 524.459 182.337C537.968 171.292 550.969 159.786 563.466 147.819C576.416 136.829 589.182 125.553 601.764 113.992ZM495.178 182.389L431.678 280.889L423.678 129.949L477.226 63.4191L479.678 70.4492L495.178 182.389Z" fill="black"/>
<path fill-rule="evenodd" clip-rule="evenodd" d="M655.178 235.723L576.178 326.889L641.678 278.891L655.178 235.723ZM513.178 245.889L589.678 137.329L574.178 186.459L513.178 245.889ZM471.087 96.3286L439.678 247.829L481.678 182.329L471.087 96.3286ZM321.178 210.389L314.178 124.389L368.678 271.329L321.178 210.389ZM190.678 202.028L195.178 247.389L268.178 296.449L190.678 202.028Z" fill="black"/>
</svg>
